<svg xmlns="http://www.w3.org/2000/svg" viewBox="0 0 128 128" width="128" height="128">
  <!-- Background -->
  <rect width="128" height="128" rx="22" fill="#0f172a"/>

  <!-- Edges -->
  <line x1="18" y1="64" x2="42" y2="42" stroke="#475569" stroke-width="2.5" stroke-linecap="round"/>
  <line x1="18" y1="64" x2="42" y2="86" stroke="#475569" stroke-width="2.5" stroke-linecap="round"/>
  <line x1="54" y1="42" x2="74" y2="32" stroke="#475569" stroke-width="2.5" stroke-linecap="round"/>
  <line x1="54" y1="42" x2="74" y2="52" stroke="#475569" stroke-width="2.5" stroke-linecap="round"/>
  <line x1="54" y1="86" x2="74" y2="76" stroke="#475569" stroke-width="2.5" stroke-linecap="round"/>
  <line x1="54" y1="86" x2="74" y2="96" stroke="#475569" stroke-width="2.5" stroke-linecap="round"/>
  <line x1="86" y1="32" x2="110" y2="42" stroke="#475569" stroke-width="2.5" stroke-linecap="round"/>
  <line x1="86" y1="52" x2="110" y2="42" stroke="#475569" stroke-width="2.5" stroke-linecap="round"/>
  <line x1="86" y1="76" x2="110" y2="86" stroke="#475569" stroke-width="2.5" stroke-linecap="round"/>
  <line x1="86" y1="96" x2="110" y2="86" stroke="#475569" stroke-width="2.5" stroke-linecap="round"/>

  <!-- Input node (green) -->
  <rect x="6" y="54" width="18" height="20" rx="5" fill="#22c55e"/>

  <!-- Splitters (blue) -->
  <rect x="42" y="32" width="18" height="20" rx="5" fill="#3b82f6"/>
  <rect x="42" y="76" width="18" height="20" rx="5" fill="#3b82f6"/>

  <!-- Outputs (red) -->
  <rect x="74" y="22" width="18" height="20" rx="5" fill="#ef4444"/>
  <rect x="74" y="42" width="18" height="20" rx="5" fill="#ef4444"/>
  <rect x="74" y="66" width="18" height="20" rx="5" fill="#ef4444"/>
  <rect x="74" y="86" width="18" height="20" rx="5" fill="#ef4444"/>

  <!-- Mergers (orange) -->
  <rect x="92" y="32" width="18" height="20" rx="5" fill="#f97316"/>
  <rect x="92" y="76" width="18" height="20" rx="5" fill="#f97316"/>
</svg>
